<svg width="1536" height="1024" viewBox="0 0 1536 1024" fill="none" xmlns="http://www.w3.org/2000/svg">
<path d="M1210.98 311.757C1211.4 311.741 1211.84 311.727 1212.27 311.717C1235.88 311.198 1260.08 311.737 1283.74 311.528C1338.27 310.658 1391.82 311.04 1433.89 351.066C1485.13 399.818 1489.74 497.503 1439.19 548.335C1408.63 579.071 1372.01 585.88 1330.26 586.36C1329.18 586.105 1325.21 586.261 1323.98 586.252C1307.73 586.129 1291.4 586.751 1275.17 586.231L1275.05 712.315C1252.25 713.369 1220.92 712.438 1197.27 712.438C1196.31 649.59 1197.06 584.793 1197.12 521.826C1197.17 452.159 1196.44 381.499 1197.19 311.91L1210.98 311.757ZM1274.85 512.803C1293.14 512.881 1311.45 512.924 1329.73 512.828C1350.17 512.72 1364.06 511.081 1380.33 497.669C1405.74 471.164 1403.46 423.338 1377.26 398.356C1351.37 373.669 1308.21 381.086 1275.1 380.053L1275.09 467.543C1275.09 479.951 1275.75 500.888 1274.85 512.803Z" fill="#FEFEFE"/>
<path d="M242.716 310.699C300.392 307.392 347.034 326.683 388.972 365.201C387.437 368.121 385.587 371.163 383.783 373.929C373.125 390.273 363.709 407.759 352.982 424.004C340.522 415.991 332.746 410.157 328.5 406.957C291.778 379.272 231.546 375.649 193.404 402.381C111.856 459.534 129.389 614.433 235.277 632.393C277.236 639.471 307.834 630.067 354.468 597.099C357.015 600.471 361.19 607.792 363.552 611.707L390.293 656.45C361.388 688.966 318.337 707.852 274.499 711.757C90.6124 728.136 -0.180317 507.99 109.465 373.289C143.319 331.698 189.371 314.695 242.716 310.699Z" fill="#FEFEFE"/>
<path d="M1109.24 511.835C1109.24 486.097 1101.6 460.933 1087.28 439.528C1072.97 418.122 1052.61 401.434 1028.8 391.579C1004.98 381.725 978.767 379.147 953.48 384.175C928.194 389.203 904.973 401.61 886.752 419.821C886.333 420.24 885.903 420.648 885.464 421.046C856.408 447.373 831.633 478.005 811.99 511.835C831.277 545.052 855.51 575.185 883.886 601.187L885.464 602.624L886.115 603.23C886.33 603.434 886.542 603.64 886.752 603.85C904.973 622.06 928.194 634.467 953.48 639.495C978.767 644.524 1004.98 641.946 1028.8 632.091C1052.61 622.236 1072.97 605.549 1087.28 584.143C1101.6 562.737 1109.24 537.574 1109.24 511.835ZM431.91 511.835C431.91 537.574 439.549 562.737 453.866 584.143C468.183 605.549 488.536 622.236 512.354 632.091C536.173 641.946 562.384 644.524 587.67 639.495C612.956 634.467 636.177 622.06 654.398 603.85C654.818 603.431 655.247 603.022 655.687 602.624C684.742 576.298 709.516 545.665 729.159 511.835C709.516 478.005 684.742 447.373 655.687 421.046C655.247 420.648 654.818 420.24 654.398 419.821C636.177 401.61 612.956 389.203 587.67 384.175C562.384 379.147 536.173 381.725 512.354 391.579C488.536 401.434 468.183 418.122 453.866 439.528C439.549 460.933 431.91 486.097 431.91 511.835ZM1181.91 511.835C1181.91 551.962 1170 591.185 1147.69 624.543C1125.38 657.901 1093.67 683.894 1056.58 699.241C1019.49 714.587 978.678 718.599 939.308 710.77C900.238 703.001 864.325 683.915 836.036 655.899C811.526 633.607 789.585 608.737 770.575 581.759C751.565 608.737 729.623 633.607 705.113 655.899C676.825 683.915 640.912 703.001 601.843 710.77C562.472 718.599 521.662 714.587 484.571 699.241C447.481 683.894 415.773 657.901 393.462 624.543C371.151 591.185 359.24 551.962 359.24 511.835C359.24 471.708 371.151 432.485 393.462 399.127C415.773 365.77 447.481 339.776 484.571 324.43C521.662 309.084 562.472 305.072 601.843 312.901C640.912 320.67 676.825 339.755 705.113 367.771C729.623 390.063 751.565 414.932 770.575 441.91C789.585 414.932 811.526 390.063 836.036 367.771C864.325 339.755 900.238 320.67 939.308 312.901C978.678 305.072 1019.49 309.084 1056.58 324.43C1093.67 339.776 1125.38 365.77 1147.69 399.127C1170 432.485 1181.91 471.708 1181.91 511.835Z" fill="url(#paint0_linear_277_93)"/>
<defs>
<linearGradient id="paint0_linear_277_93" x1="359.24" y1="511.835" x2="1181.91" y2="511.835" gradientUnits="userSpaceOnUse">
<stop stop-color="#4A75FF"/>
<stop offset="1" stop-color="#6BDFCD"/>
</linearGradient>
</defs>
</svg>
